<?xml version="1.0" encoding="UTF-8"?>
<svg version="1.1" xmlns="http://www.w3.org/2000/svg" width="512" height="512">
<path d="M0 0 C4.62635366 5.33206862 4.78675231 12.25024707 5 19 C5.03996094 19.8765625 5.07992187 20.753125 5.12109375 21.65625 C5.32749375 29.91225009 5.47773435 40.27117941 1.4375 47.6875 C-2.03438138 50.98133618 -5.42206303 51.83765856 -10 53 C-23.50899757 56.45212423 -34.46435934 60.51574311 -42.125 72.8046875 C-44.68945837 79.23873037 -43.80638388 85.25341038 -42.75 91.875 C-42.61158691 92.78741455 -42.47317383 93.6998291 -42.33056641 94.63989258 C-41.40377636 100.6650751 -40.41298929 106.6804965 -39.375 112.6875 C-39.2522168 113.3995459 -39.12943359 114.1115918 -39.00292969 114.84521484 C-38.35580887 118.5323713 -38.35580887 118.5323713 -37 122 C-36.6596875 120.90945312 -36.319375 119.81890625 -35.96875 118.6953125 C-28.63736098 95.67774126 -18.47494508 74.6646278 -3 56 C-2.27167969 55.10667969 -1.54335937 54.21335938 -0.79296875 53.29296875 C11.25913217 39.1561801 26.58731769 30.40731182 45 28 C48.43846907 27.83563723 51.87053846 27.81493592 55.3125 27.8125 C56.21162109 27.80025391 57.11074219 27.78800781 58.03710938 27.77539062 C67.93821744 27.75391317 75.77969111 28.93322961 83.125 36.0625 C85.89666148 40.40476965 87.39513201 45.12564029 89 50 C89.54527344 49.34773438 90.09054687 48.69546875 90.65234375 48.0234375 C101.34667894 35.62897723 112.79842508 29.92726321 129 28 C133.50510778 27.76508822 137.98996516 27.76325249 142.5 27.8125 C143.65242188 27.81314453 144.80484375 27.81378906 145.9921875 27.81445312 C155.17428856 27.862611 155.17428856 27.862611 159 29 C158.98839844 28.40574219 158.97679687 27.81148437 158.96484375 27.19921875 C158.73461953 6.05147953 158.73461953 6.05147953 164 0 C171.93151102 -5.49819031 185.34994842 -3.83860338 194.43359375 -2.34375 C217.25208907 2.02692556 236.98757509 10.99234015 252.1640625 28.984375 C254.08485008 31.09315455 256.12417435 32.86005612 258.3125 34.6875 C273.82187081 48.2713877 283.04973221 67.78435772 286 88 C286.2989167 93.20417759 286.34455154 98.41320275 286.375 103.625 C286.37956207 104.37554657 286.38412415 105.12609314 286.38882446 105.89938354 C286.42153005 121.03163642 284.22211476 135.20701054 281 150 C277.60999211 163.25433765 277.60999211 163.25433765 281 176 C281.44085938 176.79019531 281.88171875 177.58039063 282.3359375 178.39453125 C288.12087276 187.86774533 295.61869162 190.27370377 306 193 C307.48139946 193.32923679 308.96457555 193.65055758 310.44921875 193.96484375 C311.20420654 194.12791016 311.95919434 194.29097656 312.73706055 194.45898438 C314.21274319 194.77102861 315.69213556 195.06615378 317.17504883 195.34179688 C322.17972188 196.39231302 324.85007249 197.97542095 328 202 C332.53586156 212.90903414 330.76524482 229.3650473 328.92578125 240.7734375 C327.19957577 244.92507094 324.70957548 247.27947881 320.55200195 249.03173828 C317.55229059 250.04861588 314.53597591 250.97230564 311.5 251.875 C292.36513238 257.74582147 292.36513238 257.74582147 278.95556641 271.85107422 C274.96988466 280.81427574 279.64238721 293.87728785 281.4375 303.0625 C281.92952841 305.6126738 282.41885325 308.16332025 282.90455627 310.71470642 C283.20539997 312.29163907 283.51007595 313.86784776 283.81944275 315.44313049 C289.49099961 344.91373638 286.70337118 377.42880837 270 403 C254.69564871 424.38099174 232.91429848 437.64691515 208 445 C206.53626953 445.48146484 206.53626953 445.48146484 205.04296875 445.97265625 C197.42424495 448.16546163 189.95418977 448.30884957 182.0625 448.375 C180.97146973 448.38893799 179.88043945 448.40287598 178.75634766 448.41723633 C173.14218385 448.38382385 168.77692792 448.3058872 164 445 C156.46877298 434.61210066 158.10301613 417.12581848 160 405 C160.9807897 401.04756388 162.31601909 398.54386343 165.57421875 395.953125 C169.55045558 393.68617128 173.20635253 392.72198005 177.625 391.6875 C188.16481834 388.96460635 197.62455132 385.25256153 203.9140625 375.89453125 C204.27242188 375.26933594 204.63078125 374.64414062 205 374 C205.34530762 373.42354736 205.69061523 372.84709473 206.04638672 372.25317383 C210.53783173 361.64089886 205.52316416 345.96628906 203.5 335.125 C203.16164186 333.26192155 202.82439445 331.39864101 202.48828125 329.53515625 C201.67161873 325.02100959 200.84005135 320.50985013 200 316 C199.69932617 316.82854492 199.69932617 316.82854492 199.39257812 317.67382812 C191.71800253 338.67884567 182.69586439 359.82837444 168 377 C167.28972656 377.83144531 166.57945312 378.66289062 165.84765625 379.51953125 C152.97256822 394.19933247 138.00164406 404.85348029 117.99511719 406.20263672 C114.68227112 406.34237099 111.3781365 406.41036436 108.0625 406.4375 C106.48118286 406.45296875 106.48118286 406.45296875 104.86791992 406.46875 C95.78454722 406.365162 88.19428721 404.95169122 81.4375 398.6015625 C77.50920291 394.22492716 76.5727388 389.727388 76 384 C75.34 384 74.68 384 74 384 C73.74992188 384.56976563 73.49984375 385.13953125 73.2421875 385.7265625 C68.48468536 394.43368905 59.95991792 399.49879565 51 403 C41.57782537 405.7402695 32.53278767 406.430308 22.80908203 406.28125 C20.70978457 406.24938966 18.61123684 406.24019218 16.51171875 406.234375 C6.33000902 406.16500451 6.33000902 406.16500451 4 405 C4.03552979 405.57854736 4.07105957 406.15709473 4.10766602 406.75317383 C5.81706866 435.43632238 5.81706866 435.43632238 1 444 C-6.02597382 450.58685046 -18.02532777 448.44790151 -26.95800781 448.17919922 C-33.91001156 447.76966706 -40.39852773 446.14088502 -47 444 C-47.98806641 443.68651611 -47.98806641 443.68651611 -48.99609375 443.36669922 C-65.67703294 437.94051651 -80.17855905 429.97526263 -93 418 C-93.99193359 417.12794922 -93.99193359 417.12794922 -95.00390625 416.23828125 C-115.25800296 397.58195551 -121.57301781 371.33710464 -123.1875 344.93359375 C-123.25571611 341.93634824 -123.16222766 338.99415842 -123 336 C-122.96422852 335.3179248 -122.92845703 334.63584961 -122.89160156 333.93310547 C-122.12713838 320.90096122 -119.84791688 308.29029686 -117.03271484 295.56884766 C-113.8626364 282.08930004 -113.8626364 282.08930004 -117.4375 269.25 C-126.35099668 257.61466634 -139.1596699 253.11764334 -153.125 250.60668945 C-158.19736952 249.58925272 -160.91930942 248.175669 -164 244 C-166.43789598 237.32708835 -166.33351729 230.66999668 -166.3125 223.625 C-166.32861328 222.5525 -166.34472656 221.48 -166.36132812 220.375 C-166.3660419 212.62554632 -166.14771838 204.67526894 -160.90234375 198.55078125 C-156.92985595 196.42820028 -152.90324111 195.33003662 -148.5625 194.1875 C-137.24122188 190.99804471 -123.82248814 186.93975655 -116.5390625 177.0078125 C-116.23742187 176.38648438 -115.93578125 175.76515625 -115.625 175.125 C-115.30789062 174.50882813 -114.99078125 173.89265625 -114.6640625 173.2578125 C-113.07418627 167.85223331 -114.16188632 162.32723947 -115.2421875 156.9140625 C-115.5058003 155.56634515 -115.76930551 154.21860674 -116.03271484 152.87084961 C-116.17070496 152.17716278 -116.30869507 151.48347595 -116.4508667 150.76876831 C-123.72267606 114.01363862 -127.12621649 75.91367351 -106.20703125 42.78027344 C-103.25896811 38.43211883 -99.7219185 34.68521319 -96 31 C-95.195625 30.154375 -94.39125 29.30875 -93.5625 28.4375 C-92.716875 27.633125 -91.87125 26.82875 -91 26 C-90.37609375 25.35804687 -89.7521875 24.71609375 -89.109375 24.0546875 C-72.28572925 7.63160475 -22.722384 -16.09049202 0 0 Z M206 72 C206.66 77.28 207.32 82.56 208 88 C208.33 88 208.66 88 209 88 C209.0810206 85.89646505 209.13919907 83.79204048 209.1875 81.6875 C209.22230469 80.51574219 209.25710938 79.34398438 209.29296875 78.13671875 C209.30551734 74.66723215 209.30551734 74.66723215 206 72 Z M69.5625 90.9375 C64.76247553 95.43598262 59.81798136 99.65852447 54.69140625 103.78515625 C50.32840573 107.37560806 46.16251677 111.18059741 42 115 C44.31344169 117.65672659 46.31036262 118.63459821 49.625 119.75 C55.28385319 121.91634409 59.46944301 125.0293995 64 129 C64.60585937 129.50015625 65.21171875 130.0003125 65.8359375 130.515625 C79.99121403 143.19772795 83.5963027 162.92961833 85 181 C85.40073069 191.03881753 84.7945237 200.99751416 84 211 C86.88140726 208.17709848 89.56490244 205.35112358 92.0625 202.1875 C102.72097807 190.03912715 119.17740846 184.2302663 135 183 C147.60085082 182.39787842 159.84440416 182.27228394 172 186 C172.88429688 186.25523437 173.76859375 186.51046875 174.6796875 186.7734375 C187.00523592 190.95874833 195.36026358 200.49381657 201.4296875 211.62109375 C207.20082676 223.38533916 208.59674982 236.13962481 210 249 C210.55171875 248.30777344 211.1034375 247.61554688 211.671875 246.90234375 C225.00664183 230.27863276 225.00664183 230.27863276 233 225 C232.6876749 221.79309048 232.30380075 220.314048 230.03125 217.96484375 C229.1959375 217.29582031 228.360625 216.62679687 227.5 215.9375 C209.68182797 200.53750846 202.86362089 178.85093728 201 156 C200.57327108 150.00439925 200.26409685 144.00472834 200 138 C198.02393917 140.44613698 196.07565923 142.89724882 194.2109375 145.4296875 C186.03804851 156.31528008 175.79497549 162.6606498 162.4375 165.25 C141.35742171 168.02237996 117.70443286 168.02824201 99.73046875 155.40625 C94.38799714 151.07506842 90.60832371 145.81046244 87 140 C86.5359375 139.28714844 86.071875 138.57429688 85.59375 137.83984375 C76.82210918 122.67667196 77.25452485 102.94784423 77 86 C73.69531273 86 71.84358879 88.75960844 69.5625 90.9375 Z M-47 197 C-48.41373941 198.76642704 -49.75530931 200.59083379 -51.0625 202.4375 C-56.46038946 209.87890771 -62.58627194 216.49949208 -70 222 C-68.50738336 225.65405603 -66.4558204 227.50598878 -63.4375 230 C-46.66927768 244.80830023 -39.36160312 264.83524768 -37.68261719 286.69189453 C-37.37196577 290.52724477 -37.17404859 292.73892712 -35 296 C-34.5875 295.3709375 -34.175 294.741875 -33.75 294.09375 C-24.70675152 280.69036387 -14.4619246 272.56234822 1.5 269.0625 C20.45665338 265.77386125 43.57803144 266.04502123 60.27734375 276.4140625 C62.28396703 277.8545176 64.14453817 279.37042048 66 281 C66.59296875 281.50015625 67.1859375 282.0003125 67.796875 282.515625 C81.15551313 294.69208276 85.56842242 313.24314282 86.4140625 330.640625 C86.49227051 332.84348385 86.56256706 335.04663763 86.625 337.25 C86.66367187 338.38824219 86.70234375 339.52648437 86.7421875 340.69921875 C86.83518848 343.46599779 86.92102861 346.23279117 87 349 C91.44849305 345.73319159 95.76570844 342.45080353 99.8125 338.6875 C105.88221829 333.14232527 112.18675629 327.86397795 118.76171875 322.92578125 C121.243901 321.12312248 121.243901 321.12312248 122 318 C121.03320312 317.5875 120.06640625 317.175 119.0703125 316.75 C103.0220847 309.71985952 92.42200397 300.28731925 85.125 284.125 C77.73055089 264.84843612 78.41522833 244.20583881 80 224 C77.62570809 226.34960257 75.27426606 228.69628987 73.03515625 231.17578125 C61.70008486 243.45357145 45.72758431 250.42012106 29.04663086 251.12475586 C6.88598125 251.64116737 -11.79777243 251.5776169 -28.71484375 235.46484375 C-38.55559142 224.8502937 -42.78302217 211.06291906 -45 197 C-45.66 197 -46.32 197 -47 197 Z M-44 353 C-46.50159537 358.00319074 -45.87890423 366.99665869 -44.31640625 372.3359375 C-42.03660845 376.51714342 -38.4498837 379.78533564 -35 383 C-34.34 382.67 -33.68 382.34 -33 382 C-33.47050781 380.99582031 -33.94101563 379.99164063 -34.42578125 378.95703125 C-38.35806224 370.3828689 -41.32293911 362.32765297 -43 353 C-43.33 353 -43.66 353 -44 353 Z " fill="#000101" transform="translate(175,30)"/>
<path d="M0 0 C0 5.61 0 11.22 0 17 C-2.475 17.598125 -4.95 18.19625 -7.5 18.8125 C-20.50732105 22.06075146 -33.62027721 26.79917352 -42 38 C-51.73329266 54.7739284 -50.10283004 71.61186171 -46 90 C-41.08194894 114.15630961 -34.99722999 144.20629226 -48.38671875 166.56640625 C-50.77697557 170.17204789 -53.28589773 173.63223959 -56 177 C-56.62390625 177.81855469 -57.2478125 178.63710937 -57.890625 179.48046875 C-63.85309202 186.60230436 -71.98372817 191.49620148 -80 196 C-80.87527344 196.515625 -81.75054687 197.03125 -82.65234375 197.5625 C-89.1943639 201.31688746 -95.77564095 203.8566474 -103 206 C-101.4805201 206.77349782 -99.95933433 207.5436448 -98.4375 208.3125 C-97.16712891 208.95638672 -97.16712891 208.95638672 -95.87109375 209.61328125 C-93.79772515 210.61470418 -91.69395075 211.55399124 -89.57421875 212.453125 C-68.17179287 221.71581423 -52.66015291 237.34961773 -44 259 C-36.35570191 281.69808648 -43.17116681 308.22366998 -48.47509766 330.7019043 C-49.86586146 336.79086229 -50.24982866 342.44961247 -50.3125 348.6875 C-50.34150391 349.63044922 -50.37050781 350.57339844 -50.40039062 351.54492188 C-50.49327134 361.94041673 -46.95320117 370.30982359 -40 378 C-31.56233822 386.40265073 -22.79138615 390.75355233 -11.5 394.3125 C-10.39140625 394.67150391 -9.2828125 395.03050781 -8.140625 395.40039062 C-5.43019375 396.27660763 -2.71551284 397.13966063 0 398 C0 402.95 0 407.9 0 413 C-27.72716606 411.26705212 -51.64866177 398.51515274 -70 378 C-85.42065971 359.55970541 -89.15259575 337.34522797 -88 314 C-87.03687832 303.66852699 -84.2800541 293.50607489 -81.71411133 283.48022461 C-77.99440989 268.63177788 -76.80779276 254.14252333 -84.40234375 240.4765625 C-93.7489161 225.62259666 -109.23075396 219.94889243 -125.5 216.125 C-128.2225 215.568125 -128.2225 215.568125 -131 215 C-131 209.72 -131 204.44 -131 199 C-128.64488281 198.38125 -128.64488281 198.38125 -126.2421875 197.75 C-110.79779963 193.55666982 -94.14245562 189.03025829 -84.3125 175.3125 C-83.73113281 174.52488281 -83.14976563 173.73726562 -82.55078125 172.92578125 C-72.83297069 154.59167519 -80.80203401 130.29908688 -85.24389648 111.5065918 C-88.8799537 94.64359864 -89.080813 75.2577292 -83 59 C-82.71125 58.11054687 -82.4225 57.22109375 -82.125 56.3046875 C-75.9703758 38.77499892 -60.13633525 21.56977785 -43.55859375 13.20703125 C-42.71425781 12.80871094 -41.86992188 12.41039062 -41 12 C-39.89785156 11.44699219 -38.79570313 10.89398438 -37.66015625 10.32421875 C-26.35815496 4.86818167 -12.6708135 0 0 0 Z " fill="#009AFC" transform="translate(160,46)"/>
<path d="M0 0 C3.67689122 0.62894192 7.33756185 1.29447511 11 2 C11.93714844 2.17144531 12.87429688 2.34289063 13.83984375 2.51953125 C22.99161855 4.46538186 30.86957279 8.51401304 39 13 C39.86882812 13.47308594 40.73765625 13.94617187 41.6328125 14.43359375 C46.94756781 17.64340117 50.90373776 21.92734739 54.98120117 26.54370117 C57.54810782 29.44967576 60.13205321 32.09912033 63.125 34.5625 C68.98693288 39.46762978 73.77275026 45.65912539 78 52 C78 52.99 78 53.98 78 55 C78.66 55 79.32 55 80 55 C80.96507147 57.33073863 81.92210022 59.66428751 82.875 62 C83.14441406 62.64839844 83.41382813 63.29679687 83.69140625 63.96484375 C91.63198655 83.52578546 87.83738982 103.07160775 83 123 C78.72695524 140.91033546 75.64956114 158.73853339 85.36328125 175.390625 C92.91553161 187.43096687 99.87641663 191.47179714 113.6875 194.75 C114.91017578 195.05292969 116.13285156 195.35585937 117.39257812 195.66796875 C120.59202398 196.45860611 123.7952286 197.23132073 127 198 C128.32 198.33 129.64 198.66 131 199 C131 203.95 131 208.9 131 214 C129.20175781 214.556875 127.40351563 215.11375 125.55078125 215.6875 C100.00827258 223.30460428 100.00827258 223.30460428 81.91210938 241.93139648 C79.00242334 247.77716173 78.43081943 252.71859852 78.625 259.1875 C78.64151611 260.11457764 78.65803223 261.04165527 78.67504883 261.99682617 C79.00012275 274.84450705 81.54053242 287.03957083 84.23510742 299.5637207 C89.69086859 324.94325134 88.01087082 348.27781036 75 371 C72.6060533 374.64232381 69.97887616 377.82395315 67 381 C66.16597656 381.91265625 65.33195312 382.8253125 64.47265625 383.765625 C54.17506712 394.58030971 42.5236665 401.15066328 29 407 C28.28457031 407.32871094 27.56914062 407.65742188 26.83203125 407.99609375 C18.72749222 411.44902098 8.74492328 413 0 413 C0 407.72 0 402.44 0 397 C3.0009375 396.195625 3.0009375 396.195625 6.0625 395.375 C21.26618568 391.07442058 35.20566259 386.31156584 43.5 371.9375 C47.50012635 364.65038459 49.38277703 358.06110209 49.33984375 349.7421875 C49.33709946 348.96382538 49.33435516 348.18546326 49.33152771 347.3835144 C49.15951365 338.42970907 47.41259158 329.85779237 45.5625 321.125 C40.12112345 294.80940027 35.9349684 267.02653523 50.75 243.18359375 C58.09173729 232.43100768 67.5322158 224.13057646 79 218 C79.86109375 217.49984375 80.7221875 216.9996875 81.609375 216.484375 C88.47538115 212.55527321 95.56291643 209.67214767 103 207 C102.27039063 206.75507813 101.54078125 206.51015625 100.7890625 206.2578125 C83.53896744 200.08185254 69.60890745 191.30225205 57 178 C55.89205078 176.86304688 55.89205078 176.86304688 54.76171875 175.703125 C44.22764286 163.65083418 40.62585435 146.50141249 40.8125 131 C40.81314453 129.95199219 40.81378906 128.90398437 40.81445312 127.82421875 C40.85929856 120.14070144 40.85929856 120.14070144 42 119 C42.26042943 116.75340394 42.48053359 114.50215059 42.6875 112.25 C43.40155169 105.17326549 44.74091783 98.33522138 46.28710938 91.39526367 C52.13414931 66.14570055 52.13414931 66.14570055 45 42 C44.53851563 41.20464844 44.07703125 40.40929687 43.6015625 39.58984375 C35.27000782 27.26168035 20.58682221 22.19819095 7.08959961 17.72680664 C4.69815728 16.89501276 2.35087611 15.94035044 0 15 C0 10.05 0 5.1 0 0 Z " fill="#009AFB" transform="translate(354,46)"/>
<path d="M0 0 C0.73766602 -0.02255859 1.47533203 -0.04511719 2.23535156 -0.06835938 C5.96895385 -0.05141157 8.10410741 0.30343502 11.26953125 2.33984375 C13.75637046 4.89325227 14.22846944 5.98000027 14.875 9.5 C13.63955437 18.14811939 4.71373683 24.06297546 -1.6875 29.4375 C-2.76552021 30.36449488 -3.84223651 31.29300727 -4.91796875 32.22265625 C-10.40455288 36.95851657 -15.91290819 41.64582536 -21.5625 46.1875 C-34.59709527 56.89380739 -44.85721037 70.42306912 -47.4375 87.625 C-47.52 88.553125 -47.6025 89.48125 -47.6875 90.4375 C-46.676875 89.9425 -45.66625 89.4475 -44.625 88.9375 C-35.31938163 85.43127594 -24.61906974 86.78312393 -15.53515625 90.26171875 C-3.30610992 96.1755464 3.60199259 106.33204677 8.48828125 118.7578125 C10.67503988 125.86736899 11.63527061 132.50276919 11.5625 139.9375 C11.57410156 141.12279297 11.57410156 141.12279297 11.5859375 142.33203125 C11.54808722 153.89529254 8.35799237 162.35342304 0.7890625 171.22265625 C-9.16994725 180.70140918 -24.15703054 185.35530255 -37.5625 185.9375 C-49.05567346 185.62035945 -58.4379481 181.8745519 -66.57421875 173.73828125 C-67.27160156 172.97902344 -67.96898437 172.21976563 -68.6875 171.4375 C-69.27144531 170.83292969 -69.85539063 170.22835937 -70.45703125 169.60546875 C-81.34913035 156.94857385 -81.46086471 138.15184123 -80.6875 122.4375 C-77.53043954 86.36808422 -63.07322697 47.59433231 -38.6875 20.4375 C-37.99140625 19.64730469 -37.2953125 18.85710937 -36.578125 18.04296875 C-30.73488351 11.78387613 -24.15119679 7.51905948 -16.6875 3.4375 C-15.69169922 2.86128906 -15.69169922 2.86128906 -14.67578125 2.2734375 C-10.03909338 0.04365951 -5.05448498 0.10649989 0 0 Z " fill="#009AFC" transform="translate(229.6875,77.5625)"/>
<path d="M0 0 C11.06926301 9.27050777 17.01753275 20.7074221 18.42382812 35.10742188 C20.9197101 76.08411704 5.24184576 123.69297277 -22.01831055 154.63134766 C-24.22200965 157.04772098 -26.50513229 159.36959637 -28.8125 161.6875 C-29.44285156 162.35265625 -30.07320313 163.0178125 -30.72265625 163.703125 C-39.06923796 171.84792122 -51.63132079 177.74479202 -63.25 178 C-64.36246094 178.03738281 -65.47492188 178.07476562 -66.62109375 178.11328125 C-70.47708866 177.59883395 -72.04701712 176.35847897 -74.8125 173.6875 C-77.1242345 170.38502215 -77.37183735 167.65413403 -76.8125 163.6875 C-74.86132492 160.91833973 -72.46619615 158.68467789 -70 156.375 C-69.31365479 155.71201904 -68.62730957 155.04903809 -67.92016602 154.3659668 C-63.34244539 149.99231774 -58.61236297 145.86372048 -53.640625 141.94140625 C-50.18705746 139.18904649 -46.84370899 136.32155337 -43.5 133.4375 C-42.3582861 132.45287775 -41.21636653 131.46849392 -40.07421875 130.484375 C-39.5313623 130.01515625 -38.98850586 129.5459375 -38.42919922 129.0625 C-36.84569182 127.71572958 -35.23190931 126.41353538 -33.61328125 125.109375 C-22.52008056 115.5169281 -17.42481135 100.68857222 -14.8125 86.6875 C-15.37195313 86.97625 -15.93140625 87.265 -16.5078125 87.5625 C-25.35756201 91.66013321 -34.84291063 92.45962309 -44.125 89.125 C-52.0967555 85.40746542 -58.58362407 79.7052019 -63.8125 72.6875 C-64.25335938 72.10613281 -64.69421875 71.52476562 -65.1484375 70.92578125 C-73.9700614 58.17452489 -75.30700278 40.76136421 -73.8125 25.6875 C-72.71047335 21.27939338 -71.10840638 17.59723978 -68.8125 13.6875 C-68.16087891 12.56988281 -68.16087891 12.56988281 -67.49609375 11.4296875 C-60.97953294 1.66412914 -49.62946438 -3.91342997 -38.55859375 -6.92578125 C-24.81534819 -8.86117429 -11.46072423 -8.39696627 0 0 Z " fill="#009AFC" transform="translate(346.8125,239.3125)"/>
<path d="M0 0 C1.84609863 0.02223633 1.84609863 0.02223633 3.72949219 0.04492188 C13.34586563 0.36606236 20.36516107 1.80006183 28.125 7.8125 C28.90230469 8.41449219 29.67960937 9.01648438 30.48046875 9.63671875 C40.15766031 18.29716973 45.70770478 30.5709934 46.4375 43.38671875 C47.05538948 61.07380505 44.10644454 76.1322794 31.875 89.625 C22.28804023 98.64674218 12.56086727 100.04019772 0 100.1875 C-1.1859375 100.22488281 -2.371875 100.26226562 -3.59375 100.30078125 C-15.55083096 100.4195602 -23.03385498 96.39153855 -31.6171875 88.265625 C-44.21613319 74.57680512 -45.63287034 58.2135229 -45.05419922 40.51367188 C-44.6968986 35.12787611 -43.28609803 30.60465122 -40.875 25.8125 C-40.45089844 24.94882813 -40.02679688 24.08515625 -39.58984375 23.1953125 C-31.01554771 7.4797504 -17.80466014 -0.36008332 0 0 Z " fill="#009AFD" transform="translate(316.875,77.1875)"/>
<path d="M0 0 C10.25361781 7.37300277 17.88154749 19.08560502 20.4609375 31.4921875 C21.93601882 49.99418846 20.34183156 66.46124428 8.4609375 81.4921875 C1.56633839 89.19188841 -7.20102357 93.6078118 -17.53515625 94.19140625 C-20.01552785 94.21370467 -22.49626881 94.20941483 -24.9765625 94.1796875 C-26.20955078 94.20740234 -27.44253906 94.23511719 -28.71289062 94.26367188 C-39.90466509 94.23411093 -48.2025165 90.84836068 -56.4140625 83.2421875 C-67.76998407 70.88004503 -71.50251123 56.31492096 -70.84375 39.84765625 C-69.92210181 24.92806759 -64.99173205 13.45463745 -54.2890625 2.9296875 C-39.66260763 -8.71637674 -16.00690394 -9.50563834 0 0 Z " fill="#009AFD" transform="translate(221.5390625,322.5078125)"/>
</svg>
