<?xml version="1.0" encoding="utf-8"?>
<svg xmlns="http://www.w3.org/2000/svg" 
     width="24" 
     height="24" 
     viewBox="0 0 24 24" 
     fill="none" 
     stroke="currentColor" 
     stroke-width="2" 
     stroke-linecap="round" 
     stroke-linejoin="round">
  <path d="M9 19c-5 1.5-5-2.5-7-3m14 6v-3.5c0-1 0-1.5-.5-2 2.8-.3 5.5-1.4 5.5-6a4.6 4.6 0 0 0-1.3-3.2 4.2 4.2 0 0 0-.1-3.2s-1.1-.3-3.5 1.3a12.3 12.3 0 0 0-6.2 0C6.5 2.8 5.4 3.1 5.4 3.1a4.2 4.2 0 0 0-.1 3.2A4.6 4.6 0 0 0 4 13.5c0 4.6 2.7 5.7 5.5 6-.6.5-.9 1.4-.9 2.8v3.5"></path>
</svg>