<?xml version="1.0" encoding="UTF-8"?>
<svg width="24" height="24" viewBox="0 0 24 24" fill="none" xmlns="http://www.w3.org/2000/svg">
    <path d="M9 19c-4.3 1.4-4.3-2.5-6-3m12 5v-3.5c0-1 .1-1.4-.5-2 2.8-.3 5.5-1.4 5.5-6.1a4.6 4.6 0 0 0-1.3-3.2 4.2 4.2 0 0 0-.1-3.2s-1.1-.3-3.5 1.3a12.3 12.3 0 0 0-6.2 0C6.1 2.8 5 3.1 5 3.1a4.2 4.2 0 0 0-.1 3.2A4.6 4.6 0 0 0 3.6 11c0 4.7 2.7 5.8 5.5 6.1-.6.5-.9 1.4-.9 2.8v3.5" stroke="currentColor" stroke-width="2" stroke-linecap="round" stroke-linejoin="round"/>
</svg>